<svg width="221" height="55" viewBox="0 0 221 55" fill="none" xmlns="http://www.w3.org/2000/svg">
<path d="M85.856 29.456H80.288V26.912H94.568V29.456H88.976V44H85.856V29.456ZM101.121 31.592C101.585 31.592 101.985 31.656 102.321 31.784L102.297 34.52C101.785 34.312 101.257 34.208 100.713 34.208C99.6889 34.208 98.9049 34.504 98.3609 35.096C97.8329 35.688 97.5689 36.472 97.5689 37.448V44H94.5929V35.312C94.5929 34.032 94.5289 32.888 94.4009 31.88H97.2089L97.4489 34.016C97.7529 33.232 98.2329 32.632 98.8889 32.216C99.5449 31.8 100.289 31.592 101.121 31.592ZM115.349 31.88V44H112.397V42.056C112.029 42.728 111.501 43.256 110.813 43.64C110.125 44.008 109.341 44.192 108.461 44.192C107.405 44.192 106.469 43.936 105.653 43.424C104.837 42.912 104.205 42.184 103.757 41.24C103.309 40.296 103.085 39.2 103.085 37.952C103.085 36.704 103.309 35.6 103.757 34.64C104.221 33.664 104.861 32.912 105.677 32.384C106.493 31.84 107.421 31.568 108.461 31.568C109.341 31.568 110.125 31.76 110.813 32.144C111.501 32.512 112.029 33.032 112.397 33.704V31.88H115.349ZM109.277 41.84C110.269 41.84 111.037 41.496 111.581 40.808C112.125 40.12 112.397 39.152 112.397 37.904C112.397 36.624 112.125 35.64 111.581 34.952C111.037 34.264 110.261 33.92 109.253 33.92C108.261 33.92 107.485 34.28 106.925 35C106.381 35.704 106.109 36.688 106.109 37.952C106.109 39.2 106.381 40.16 106.925 40.832C107.485 41.504 108.269 41.84 109.277 41.84ZM124.352 28.712C123.056 28.712 122.408 29.424 122.408 30.848V31.88H125.12V34.136H122.408V44H119.408V34.136H117.104V31.88H119.408V30.704C119.408 29.264 119.768 28.16 120.488 27.392C121.224 26.608 122.272 26.216 123.632 26.216C124.384 26.216 125.016 26.312 125.528 26.504V28.88C125.08 28.768 124.688 28.712 124.352 28.712ZM138.904 31.88V44H135.952V42.056C135.584 42.728 135.056 43.256 134.368 43.64C133.68 44.008 132.896 44.192 132.016 44.192C130.96 44.192 130.024 43.936 129.208 43.424C128.392 42.912 127.76 42.184 127.312 41.24C126.864 40.296 126.64 39.2 126.64 37.952C126.64 36.704 126.864 35.6 127.312 34.64C127.776 33.664 128.416 32.912 129.232 32.384C130.048 31.84 130.976 31.568 132.016 31.568C132.896 31.568 133.68 31.76 134.368 32.144C135.056 32.512 135.584 33.032 135.952 33.704V31.88H138.904ZM132.832 41.84C133.824 41.84 134.592 41.496 135.136 40.808C135.68 40.12 135.952 39.152 135.952 37.904C135.952 36.624 135.68 35.64 135.136 34.952C134.592 34.264 133.816 33.92 132.808 33.92C131.816 33.92 131.04 34.28 130.48 35C129.936 35.704 129.664 36.688 129.664 37.952C129.664 39.2 129.936 40.16 130.48 40.832C131.04 41.504 131.824 41.84 132.832 41.84ZM142.171 26.336H145.147V44H142.171V26.336ZM160.141 31.88V43.616C160.141 45.504 159.621 46.936 158.581 47.912C157.541 48.888 156.013 49.376 153.997 49.376C152.125 49.376 150.477 48.984 149.053 48.2L149.533 45.92C151.005 46.688 152.469 47.072 153.925 47.072C156.085 47.072 157.165 46 157.165 43.856V41.456C156.797 42.112 156.261 42.648 155.557 43.064C154.853 43.464 154.061 43.664 153.181 43.664C152.125 43.664 151.181 43.416 150.349 42.92C149.533 42.408 148.893 41.696 148.429 40.784C147.981 39.856 147.757 38.8 147.757 37.616C147.757 36.432 147.981 35.384 148.429 34.472C148.893 33.544 149.533 32.832 150.349 32.336C151.181 31.824 152.125 31.568 153.181 31.568C154.077 31.568 154.869 31.76 155.557 32.144C156.261 32.512 156.797 33.032 157.165 33.704V31.88H160.141ZM153.973 41.312C154.965 41.312 155.741 40.984 156.301 40.328C156.877 39.672 157.165 38.768 157.165 37.616C157.165 36.464 156.885 35.56 156.325 34.904C155.765 34.248 154.981 33.92 153.973 33.92C152.981 33.92 152.197 34.248 151.621 34.904C151.061 35.56 150.781 36.464 150.781 37.616C150.781 38.768 151.061 39.672 151.621 40.328C152.197 40.984 152.981 41.312 153.973 41.312ZM174.974 31.88V44H172.022V42.056C171.654 42.728 171.126 43.256 170.438 43.64C169.75 44.008 168.966 44.192 168.086 44.192C167.03 44.192 166.094 43.936 165.278 43.424C164.462 42.912 163.83 42.184 163.382 41.24C162.934 40.296 162.71 39.2 162.71 37.952C162.71 36.704 162.934 35.6 163.382 34.64C163.846 33.664 164.486 32.912 165.302 32.384C166.118 31.84 167.046 31.568 168.086 31.568C168.966 31.568 169.75 31.76 170.438 32.144C171.126 32.512 171.654 33.032 172.022 33.704V31.88H174.974ZM168.902 41.84C169.894 41.84 170.662 41.496 171.206 40.808C171.75 40.12 172.022 39.152 172.022 37.904C172.022 36.624 171.75 35.64 171.206 34.952C170.662 34.264 169.886 33.92 168.878 33.92C167.886 33.92 167.11 34.28 166.55 35C166.006 35.704 165.734 36.688 165.734 37.952C165.734 39.2 166.006 40.16 166.55 40.832C167.11 41.504 167.894 41.84 168.902 41.84ZM184.769 31.592C185.233 31.592 185.633 31.656 185.969 31.784L185.945 34.52C185.433 34.312 184.905 34.208 184.361 34.208C183.337 34.208 182.553 34.504 182.009 35.096C181.481 35.688 181.217 36.472 181.217 37.448V44H178.241V35.312C178.241 34.032 178.177 32.888 178.049 31.88H180.857L181.097 34.016C181.401 33.232 181.881 32.632 182.537 32.216C183.193 31.8 183.937 31.592 184.769 31.592Z" fill="white"/>
<path d="M46.344 29.244H40.312V26.488H55.782V29.244H49.724V45H46.344V29.244Z" fill="#5B9BF3"/>
</svg>
